<svg width="1280" height="805" viewBox="0 0 1280 805" fill="none" xmlns="http://www.w3.org/2000/svg">
<g opacity="0.25">
<path d="M1686.48 1105.9C1685.68 1125.4 1670.42 1146.06 1642.23 1167.41C1613.41 1189.24 1571.73 1211.29 1520.44 1233.07C1417.89 1276.6 1277.46 1318.78 1126.08 1355.67C823.286 1429.47 477.26 1482 304.017 1482C217.878 1482 118.588 1445.89 23.5151 1389.86C-71.5159 1333.86 -162.088 1258.1 -230.758 1179.13C-299.495 1100.09 -346.005 1018.15 -353.45 949.81C-357.164 915.715 -351.146 885.133 -333.459 859.909C-315.762 834.669 -286.176 814.5 -242.205 801.643C185.475 676.591 655.124 473.022 1079.36 287.806C1132.44 264.633 1176.18 257.756 1212.79 263.487C1249.35 269.209 1279.08 287.547 1304.08 315.33C1354.27 371.081 1385.2 464.541 1413.59 569.217C1419.99 592.824 1426.26 616.99 1432.59 641.395C1454.27 724.945 1476.67 811.297 1507.59 887.577C1547.3 985.566 1601.29 1067.57 1686.48 1105.9Z" fill="#BC6501" stroke="url(#paint0_linear_118_444)" stroke-width="5"/>
<g filter="url(#filter0_dddd_118_444)">
<path d="M253.594 731.744C-129.906 964.745 876.216 1090.74 1112.59 1090.74C1348.97 1090.74 2039.29 119.406 1850.09 167.746C1509.59 254.746 1243.59 517.315 1039.09 581.744C834.593 646.173 431.351 623.746 253.594 731.744Z" fill="#BF6F00"/>
<path d="M254.892 733.881C207.087 762.925 181.508 789.987 173.07 814.869C164.743 839.427 172.935 862.511 194.561 884.377C216.26 906.318 251.225 926.708 295.504 945.424C339.735 964.12 393.052 981.061 451.269 996.2C684.201 1056.77 994.615 1088.24 1112.59 1088.24C1141.4 1088.24 1177.53 1073.4 1218.56 1047C1259.5 1020.65 1304.99 983.012 1352.43 937.916C1447.3 847.731 1549.75 727.938 1638.94 609.613C1728.13 491.275 1803.97 374.529 1845.67 290.46C1866.58 248.327 1878.72 214.759 1879.92 193.387C1880.52 182.674 1878.34 175.742 1873.97 172.056C1869.63 168.386 1862.27 167.215 1850.71 170.168C1680.86 213.566 1529.52 300.774 1394.92 385.326C1372.32 399.522 1350.19 413.65 1328.51 427.483C1285.7 454.81 1244.68 480.986 1205.48 504.26C1146.42 539.322 1091.25 567.933 1039.84 584.129C955.522 610.695 837.559 622.535 715.814 634.755C689.479 637.399 662.968 640.06 636.582 642.891C562.302 650.863 488.948 660.187 423.084 674.25C357.194 688.319 298.98 707.095 254.892 733.881Z" stroke="url(#paint1_linear_118_444)" stroke-width="5"/>
</g>
<g filter="url(#filter1_dddd_118_444)">
<path d="M907.094 467.244C1200.59 232.693 1500.59 1054.74 848.094 1270.89C534.594 1358.39 -310.407 759.392 -223.906 431.744C-223.906 283.802 84.6445 783.303 437.594 736.244C580.094 717.244 613.594 701.795 907.094 467.244Z" fill="#DF7F00"/>
<path d="M-221.489 432.382L-221.406 432.068V431.744C-221.406 422.637 -220.206 416.404 -218.14 412.46C-216.178 408.713 -213.446 407.014 -209.797 406.777C-205.897 406.524 -200.739 407.94 -194.218 411.18C-187.751 414.393 -180.219 419.257 -171.66 425.542C-154.54 438.112 -133.612 456.135 -109.311 477.367C-106.014 480.248 -102.655 483.187 -99.2364 486.179C-77.4933 505.207 -53.3304 526.354 -27.1077 548.088C94.1203 648.564 260.268 762.409 437.924 738.722C509.3 729.206 553.667 720.539 616.949 684.752C680.035 649.077 761.953 586.433 908.654 469.197C944.971 440.174 981.212 427.624 1015.56 428.068C1049.91 428.513 1082.63 441.965 1111.89 465.418C1170.46 512.372 1214.87 599.236 1229.87 700.423C1244.86 801.546 1230.42 916.66 1171.69 1019.91C1112.98 1123.12 1009.92 1214.64 847.364 1268.5C769.827 1290.12 658.92 1269.36 537.103 1220.45C415.386 1171.57 283.263 1094.78 163.594 1005C43.9155 915.216 -63.1897 812.534 -134.95 711.94C-206.795 611.227 -242.818 513.17 -221.489 432.382Z" stroke="url(#paint2_linear_118_444)" stroke-width="5"/>
</g>
<g filter="url(#filter2_dddd_118_444)">
<path d="M1034.59 693.244C1034.59 1230.74 260.968 1073.02 92.0943 974.272C-76.7798 875.522 -29.7923 678.635 122.095 611.272C449.095 466.244 312.094 787.744 449.094 767.271C621.991 741.435 1034.59 481.64 1034.59 693.244Z" fill="#FF8400"/>
<path d="M1032.09 693.244C1032.09 826.938 984.03 917.103 909.528 975.836C834.911 1034.66 733.495 1062.17 626.493 1069.86C519.524 1077.54 407.229 1065.4 311.119 1045.16C214.958 1024.91 135.241 996.606 93.3562 972.114C9.73053 923.213 -20.1904 850.257 -10.7142 781.342C-1.21906 712.29 47.8843 646.919 123.108 613.557C204.722 577.36 256.803 570.559 291.23 579.757C325.404 588.888 342.776 613.968 354.521 643.488C359.999 657.255 364.207 671.871 368.331 686.196C368.635 687.253 368.939 688.309 369.243 689.362C373.645 704.624 378.06 719.489 383.918 732.186C389.779 744.891 397.194 755.678 407.752 762.59C418.373 769.542 431.867 772.373 449.464 769.744C493.015 763.236 551.485 742.039 614.431 717.376C629.787 711.359 645.415 705.134 661.171 698.857C710.134 679.352 760.34 659.352 807.473 643.588C869.864 622.721 926.357 609.466 967.123 614.389C987.428 616.841 1003.57 623.773 1014.66 636.271C1025.75 648.769 1032.09 667.185 1032.09 693.244Z" stroke="url(#paint3_linear_118_444)" stroke-width="5"/>
</g>
</g>
<defs>
<filter id="filter0_dddd_118_444" x="152.367" y="0" width="1941.15" height="1109.74" filterUnits="userSpaceOnUse" color-interpolation-filters="sRGB">
<feFlood flood-opacity="0" result="BackgroundImageFix"/>
<feColorMatrix in="SourceAlpha" type="matrix" values="0 0 0 0 0 0 0 0 0 0 0 0 0 0 0 0 0 0 127 0" result="hardAlpha"/>
<feOffset dx="9" dy="-6"/>
<feGaussianBlur stdDeviation="12"/>
<feColorMatrix type="matrix" values="0 0 0 0 0 0 0 0 0 0 0 0 0 0 0 0 0 0 0.1 0"/>
<feBlend mode="normal" in2="BackgroundImageFix" result="effect1_dropShadow_118_444"/>
<feColorMatrix in="SourceAlpha" type="matrix" values="0 0 0 0 0 0 0 0 0 0 0 0 0 0 0 0 0 0 127 0" result="hardAlpha"/>
<feOffset dx="35" dy="-24"/>
<feGaussianBlur stdDeviation="21.5"/>
<feColorMatrix type="matrix" values="0 0 0 0 0 0 0 0 0 0 0 0 0 0 0 0 0 0 0.09 0"/>
<feBlend mode="normal" in2="effect1_dropShadow_118_444" result="effect2_dropShadow_118_444"/>
<feColorMatrix in="SourceAlpha" type="matrix" values="0 0 0 0 0 0 0 0 0 0 0 0 0 0 0 0 0 0 127 0" result="hardAlpha"/>
<feOffset dx="80" dy="-55"/>
<feGaussianBlur stdDeviation="29"/>
<feColorMatrix type="matrix" values="0 0 0 0 0 0 0 0 0 0 0 0 0 0 0 0 0 0 0.05 0"/>
<feBlend mode="normal" in2="effect2_dropShadow_118_444" result="effect3_dropShadow_118_444"/>
<feColorMatrix in="SourceAlpha" type="matrix" values="0 0 0 0 0 0 0 0 0 0 0 0 0 0 0 0 0 0 127 0" result="hardAlpha"/>
<feOffset dx="142" dy="-97"/>
<feGaussianBlur stdDeviation="34.5"/>
<feColorMatrix type="matrix" values="0 0 0 0 0 0 0 0 0 0 0 0 0 0 0 0 0 0 0.01 0"/>
<feBlend mode="normal" in2="effect3_dropShadow_118_444" result="effect4_dropShadow_118_444"/>
<feBlend mode="normal" in="SourceGraphic" in2="effect4_dropShadow_118_444" result="shape"/>
</filter>
<filter id="filter1_dddd_118_444" x="-249.086" y="229.249" width="1821.96" height="1093.27" filterUnits="userSpaceOnUse" color-interpolation-filters="sRGB">
<feFlood flood-opacity="0" result="BackgroundImageFix"/>
<feColorMatrix in="SourceAlpha" type="matrix" values="0 0 0 0 0 0 0 0 0 0 0 0 0 0 0 0 0 0 127 0" result="hardAlpha"/>
<feOffset dx="15" dy="-5"/>
<feGaussianBlur stdDeviation="17"/>
<feColorMatrix type="matrix" values="0 0 0 0 0 0 0 0 0 0 0 0 0 0 0 0 0 0 0.1 0"/>
<feBlend mode="normal" in2="BackgroundImageFix" result="effect1_dropShadow_118_444"/>
<feColorMatrix in="SourceAlpha" type="matrix" values="0 0 0 0 0 0 0 0 0 0 0 0 0 0 0 0 0 0 127 0" result="hardAlpha"/>
<feOffset dx="59" dy="-19"/>
<feGaussianBlur stdDeviation="31"/>
<feColorMatrix type="matrix" values="0 0 0 0 0 0 0 0 0 0 0 0 0 0 0 0 0 0 0.09 0"/>
<feBlend mode="normal" in2="effect1_dropShadow_118_444" result="effect2_dropShadow_118_444"/>
<feColorMatrix in="SourceAlpha" type="matrix" values="0 0 0 0 0 0 0 0 0 0 0 0 0 0 0 0 0 0 127 0" result="hardAlpha"/>
<feOffset dx="133" dy="-43"/>
<feGaussianBlur stdDeviation="42"/>
<feColorMatrix type="matrix" values="0 0 0 0 0 0 0 0 0 0 0 0 0 0 0 0 0 0 0.05 0"/>
<feBlend mode="normal" in2="effect2_dropShadow_118_444" result="effect3_dropShadow_118_444"/>
<feColorMatrix in="SourceAlpha" type="matrix" values="0 0 0 0 0 0 0 0 0 0 0 0 0 0 0 0 0 0 127 0" result="hardAlpha"/>
<feOffset dx="236" dy="-76"/>
<feGaussianBlur stdDeviation="49.5"/>
<feColorMatrix type="matrix" values="0 0 0 0 0 0 0 0 0 0 0 0 0 0 0 0 0 0 0.01 0"/>
<feBlend mode="normal" in2="effect3_dropShadow_118_444" result="effect4_dropShadow_118_444"/>
<feBlend mode="normal" in="SourceGraphic" in2="effect4_dropShadow_118_444" result="shape"/>
</filter>
<filter id="filter2_dddd_118_444" x="-27.9" y="499.563" width="1321.49" height="649.123" filterUnits="userSpaceOnUse" color-interpolation-filters="sRGB">
<feFlood flood-opacity="0" result="BackgroundImageFix"/>
<feColorMatrix in="SourceAlpha" type="matrix" values="0 0 0 0 0 0 0 0 0 0 0 0 0 0 0 0 0 0 127 0" result="hardAlpha"/>
<feOffset dx="12"/>
<feGaussianBlur stdDeviation="12.5"/>
<feColorMatrix type="matrix" values="0 0 0 0 0 0 0 0 0 0 0 0 0 0 0 0 0 0 0.1 0"/>
<feBlend mode="normal" in2="BackgroundImageFix" result="effect1_dropShadow_118_444"/>
<feColorMatrix in="SourceAlpha" type="matrix" values="0 0 0 0 0 0 0 0 0 0 0 0 0 0 0 0 0 0 127 0" result="hardAlpha"/>
<feOffset dx="46"/>
<feGaussianBlur stdDeviation="23"/>
<feColorMatrix type="matrix" values="0 0 0 0 0 0 0 0 0 0 0 0 0 0 0 0 0 0 0.09 0"/>
<feBlend mode="normal" in2="effect1_dropShadow_118_444" result="effect2_dropShadow_118_444"/>
<feColorMatrix in="SourceAlpha" type="matrix" values="0 0 0 0 0 0 0 0 0 0 0 0 0 0 0 0 0 0 127 0" result="hardAlpha"/>
<feOffset dx="104"/>
<feGaussianBlur stdDeviation="31"/>
<feColorMatrix type="matrix" values="0 0 0 0 0 0 0 0 0 0 0 0 0 0 0 0 0 0 0.05 0"/>
<feBlend mode="normal" in2="effect2_dropShadow_118_444" result="effect3_dropShadow_118_444"/>
<feColorMatrix in="SourceAlpha" type="matrix" values="0 0 0 0 0 0 0 0 0 0 0 0 0 0 0 0 0 0 127 0" result="hardAlpha"/>
<feOffset dx="185"/>
<feGaussianBlur stdDeviation="37"/>
<feColorMatrix type="matrix" values="0 0 0 0 0 0 0 0 0 0 0 0 0 0 0 0 0 0 0.01 0"/>
<feBlend mode="normal" in2="effect3_dropShadow_118_444" result="effect4_dropShadow_118_444"/>
<feBlend mode="normal" in="SourceGraphic" in2="effect4_dropShadow_118_444" result="shape"/>
</filter>
<linearGradient id="paint0_linear_118_444" x1="847.118" y1="337.308" x2="847.118" y2="1123.75" gradientUnits="userSpaceOnUse">
<stop stop-color="#FF6E00"/>
<stop offset="0.535" stop-color="#E3975D"/>
<stop offset="1" stop-color="#936038"/>
</linearGradient>
<linearGradient id="paint1_linear_118_444" x1="1012.34" y1="534.562" x2="1012.34" y2="1093.31" gradientUnits="userSpaceOnUse">
<stop stop-color="#FF6E00"/>
<stop offset="0.535" stop-color="#E3975D"/>
<stop offset="1" stop-color="#936038"/>
</linearGradient>
<linearGradient id="paint2_linear_118_444" x1="339.855" y1="377.744" x2="339.855" y2="1167.74" gradientUnits="userSpaceOnUse">
<stop stop-color="#FF6E00"/>
<stop offset="0.535" stop-color="#E3975D"/>
<stop offset="1" stop-color="#936038"/>
</linearGradient>
<linearGradient id="paint3_linear_118_444" x1="476.535" y1="620.644" x2="219.979" y2="1059.39" gradientUnits="userSpaceOnUse">
<stop stop-color="#FF6E00"/>
<stop offset="0.535" stop-color="#E3975D"/>
<stop offset="1" stop-color="#936038"/>
</linearGradient>
</defs>
</svg>
