<svg width="61" height="61" viewBox="0 0 61 61" fill="none" xmlns="http://www.w3.org/2000/svg">
<path d="M39.6668 20.3333C39.6668 25.3959 35.5628 29.5 30.5002 29.5C25.4376 29.5 21.3335 25.3959 21.3335 20.3333C21.3335 15.2707 25.4376 11.1667 30.5002 11.1667C35.5628 11.1667 39.6668 15.2707 39.6668 20.3333Z" stroke="white" stroke-width="2" stroke-linecap="round"/>
<path d="M14.4905 37.5703C15.6145 35.4156 17.9356 34.3125 20.3658 34.3125H40.6342C43.0644 34.3125 45.3855 35.4156 46.5095 37.5703C47.8309 40.1034 49.3447 43.9558 49.5411 48.5615C49.5646 49.1133 49.1148 49.5625 48.5625 49.5625H12.4375C11.8852 49.5625 11.4353 49.1133 11.4589 48.5615C11.6553 43.9558 13.1691 40.1034 14.4905 37.5703Z" stroke="white" stroke-width="2" stroke-linecap="round"/>
</svg>
